<svg xmlns="http://www.w3.org/2000/svg" xmlns:xlink="http://www.w3.org/1999/xlink" width="15.708" height="13.964" viewBox="0 0 15.708 13.964"><defs><linearGradient id="a" x1="0.5" x2="0.5" y2="1" gradientUnits="objectBoundingBox"><stop offset="0" stop-color="#df8f01"/><stop offset="1" stop-color="#a95c06"/></linearGradient></defs><path d="M10.473,3.325a.652.652,0,0,0-.191-.461L7.612.191A.654.654,0,0,0,7.148,0H6.982V3.491h3.491Zm5.1,5.076-2.61-2.629a.437.437,0,0,0-.747.308V7.855H10.47V9.6h1.745v1.778a.437.437,0,0,0,.747.308l2.61-2.632A.464.464,0,0,0,15.573,8.4ZM5.236,9.164V8.291a.438.438,0,0,1,.436-.436h4.8V4.364H6.764a.656.656,0,0,1-.655-.655V0H.655A.653.653,0,0,0,0,.655V13.309a.653.653,0,0,0,.655.655H9.818a.653.653,0,0,0,.655-.655V9.6h-4.8A.438.438,0,0,1,5.236,9.164Z" fill="url(#a)"/></svg>