<svg xmlns="http://www.w3.org/2000/svg" xmlns:xlink="http://www.w3.org/1999/xlink" width="133.038" height="162.038" viewBox="0 0 133.038 162.038"><defs><linearGradient id="a" x1="0.5" x2="0.5" y2="1" gradientUnits="objectBoundingBox"><stop offset="0" stop-color="#c14790"/><stop offset="1" stop-color="#d98801"/></linearGradient><filter id="b" x="15.997" y="15.595" width="101.046" height="28.538" filterUnits="userSpaceOnUse"><feOffset dy="3" input="SourceAlpha"/><feGaussianBlur stdDeviation="3" result="c"/><feFlood flood-opacity="0.161"/><feComposite operator="in" in2="c"/><feComposite in="SourceGraphic"/></filter><linearGradient id="d" x1="0.5" x2="0.5" y2="1" gradientUnits="objectBoundingBox"><stop offset="0" stop-color="#d98801"/><stop offset="1" stop-color="#c14790"/></linearGradient><linearGradient id="e" x1="0.5" x2="0.5" y2="1" gradientUnits="objectBoundingBox"><stop offset="0" stop-color="#d98801"/><stop offset="0.961" stop-color="#c14790"/><stop offset="1" stop-color="#c14790"/></linearGradient><filter id="f" x="15.997" y="118.037" width="101.046" height="28.539" filterUnits="userSpaceOnUse"><feOffset dy="3" input="SourceAlpha"/><feGaussianBlur stdDeviation="3" result="g"/><feFlood flood-opacity="0.161"/><feComposite operator="in" in2="g"/><feComposite in="SourceGraphic"/></filter><filter id="h" x="25.642" y="25.632" width="81.752" height="110.906" filterUnits="userSpaceOnUse"><feOffset dy="3" input="SourceAlpha"/><feGaussianBlur stdDeviation="3" result="i"/><feFlood flood-opacity="0.161"/><feComposite operator="in" in2="i"/><feComposite in="SourceGraphic"/></filter><filter id="j" x="0" y="0" width="133.038" height="162.038" filterUnits="userSpaceOnUse"><feOffset dy="3" input="SourceAlpha"/><feGaussianBlur stdDeviation="11.5" result="k"/><feFlood flood-opacity="0.749"/><feComposite operator="in" in2="k"/><feComposite in="SourceGraphic"/></filter><linearGradient id="m" x1="0.5" x2="0.5" y2="1" gradientUnits="objectBoundingBox"><stop offset="0" stop-color="#ff9f00"/><stop offset="1" stop-color="#9f6300"/></linearGradient></defs><g transform="translate(25.496 22.095)"><g transform="translate(0 0)"><g transform="matrix(1, 0, 0, 1, -25.5, -22.1)" filter="url(#b)"><path d="M4.053,9.538V5.864h73.94V9.538ZM0,5.864V0H82.046V5.864Z" transform="translate(25.5 22.1)" stroke="rgba(0,0,0,0)" stroke-miterlimit="10" stroke-width="1" fill="url(#a)"/></g><g transform="translate(4.053 5.864)"><path d="M249.135,250.5l-73.94.809v-2.242h73.94Z" transform="translate(-175.195 -249.065)" opacity="0.2" fill="url(#d)"/></g></g><g transform="translate(0 102.442)"><g transform="matrix(1, 0, 0, 1, -25.5, -124.54)" filter="url(#f)"><path d="M0,9.539V3.675H4.053V0h73.94V3.675h4.053V9.539Z" transform="translate(25.5 124.54)" stroke="rgba(0,0,0,0)" stroke-miterlimit="10" stroke-width="1" fill="url(#e)"/></g></g><g transform="translate(9.004 9.405)" opacity="0.4"><g transform="matrix(1, 0, 0, 1, -34.5, -31.5)" filter="url(#h)"><path d="M244.32,325.581c2.961,4.118,4.283,23.354,4.283,23.354H184.851s1.319-19.237,4.284-23.354c4.728-6.568,24.769-20.692,24.769-23.932v-1.205c-.153-3.309-20.062-17.347-24.769-23.892-2.961-4.118-4.284-20.523-4.284-20.523H248.6s-1.319,16.405-4.283,20.523c-4.728,6.568-24.769,20.692-24.769,23.932v1.205C219.7,305,239.612,319.037,244.32,325.581Z" transform="translate(-150.21 -224.4)" fill="#3c3c3c"/></g><g transform="matrix(1, 0, 0, 1, -34.5, -31.5)" filter="url(#j)"><path d="M248.617,348.817H184.583l.01-.141c.053-.785,1.355-19.294,4.307-23.389,2.234-3.1,7.8-7.814,13.181-12.373,5.685-4.816,11.563-9.8,11.563-11.448v-1.2c-.079-1.679-5.653-6.4-11.555-11.4-5.386-4.563-10.955-9.28-13.189-12.382-2.948-4.094-4.254-19.889-4.307-20.559l-.012-.143h64.038l-.011.143c-.054.67-1.355,16.465-4.307,20.56-2.234,3.1-7.8,7.814-13.182,12.373-5.685,4.816-11.563,9.8-11.563,11.448v1.2c.078,1.68,5.652,6.4,11.555,11.4,5.386,4.563,10.956,9.28,13.19,12.382h0c2.949,4.094,4.253,22.6,4.307,23.388Zm-63.752-.263h63.469c-.129-1.756-1.476-19.262-4.249-23.112h0c-2.215-3.075-7.772-7.782-13.147-12.334-6.205-5.256-11.564-9.8-11.648-11.595V300.3c0-1.774,5.4-6.35,11.656-11.648,5.37-4.55,10.924-9.254,13.138-12.327,2.764-3.833,4.108-18.666,4.247-20.285H184.867c.14,1.618,1.487,16.452,4.247,20.285,2.215,3.075,7.772,7.782,13.147,12.334,6.2,5.256,11.563,9.794,11.648,11.595v1.21c0,1.774-5.4,6.35-11.656,11.648-5.371,4.55-10.923,9.254-13.138,12.327C186.338,329.291,184.993,346.8,184.865,348.553Z" transform="translate(-150.08 -224.28)" fill="#3c3c3c"/></g></g><path d="M244.572,324.138c2.786,3.875,4.031,24.716,4.031,24.716h-56.35s1.241-20.841,4.031-24.716c4.449-6.181,23.307-19.471,23.307-22.52v-1.134c-.145-3.113-18.878-16.324-23.307-22.482-2.786-3.874-4.031-22.143-4.031-22.143H248.6s-1.241,18.268-4.031,22.143c-4.449,6.181-23.308,19.471-23.308,22.52v1.134C221.409,304.769,240.142,317.98,244.572,324.138Z" transform="translate(-179.203 -246.412)" fill="#e3e1e1"/><path d="M0,57.037s19.253-23.476,26.233-27.09a8.452,8.452,0,0,0,1-2.9V13.787c0-7.046-.575-8.022-1.128-8.866A35.246,35.246,0,0,1,20.455,0h14.1a35.23,35.23,0,0,1-5.659,4.926l-.005.005c-.549.839-1.118,1.841-1.118,8.855V27.051a7.7,7.7,0,0,0,.881,2.652c6.483,2.605,26.759,27.334,26.759,27.334Z" transform="translate(13.519 45.694)" stroke="rgba(0,0,0,0)" stroke-miterlimit="10" stroke-width="1" fill="url(#d)"/><g transform="translate(13.316 74.961)"><g transform="translate(0 0)"><path d="M248.17,407.6H192.758s22.6-27.522,27.706-27.522S248.17,407.6,248.17,407.6Z" transform="translate(-192.758 -380.074)" fill="url(#m)"/></g><g transform="translate(6.243 6.217)" opacity="0.1"><path d="M269.685,423.077a.391.391,0,1,1-.391-.391A.391.391,0,0,1,269.685,423.077Z" transform="translate(-234.985 -406.645)" fill="url(#m)"/><path d="M216.729,413.7a.391.391,0,1,1-.391-.391A.391.391,0,0,1,216.729,413.7Z" transform="translate(-209.959 -402.216)" fill="url(#m)"/><path d="M271.588,420.148a.291.291,0,1,1-.292-.291A.292.292,0,0,1,271.588,420.148Z" transform="translate(-235.978 -405.308)" fill="url(#m)"/><path d="M264.532,400.087a.291.291,0,1,1-.291-.291A.291.291,0,0,1,264.532,400.087Z" transform="translate(-232.644 -395.828)" fill="url(#m)"/><path d="M205.177,425.4a.291.291,0,1,1-.292-.292A.291.291,0,0,1,205.177,425.4Z" transform="translate(-204.594 -407.789)" fill="url(#m)"/><path d="M237.373,396.262a.291.291,0,1,1-.292-.292A.291.291,0,0,1,237.373,396.262Z" transform="translate(-219.809 -394.02)" fill="url(#m)"/><path d="M236.428,392.474a.2.2,0,1,1-.2-.2A.2.2,0,0,1,236.428,392.474Z" transform="translate(-219.448 -392.272)" fill="url(#m)"/><path d="M244.419,419.294a.2.2,0,1,1-.2-.2A.2.2,0,0,1,244.419,419.294Z" transform="translate(-223.223 -404.947)" fill="url(#m)"/><path d="M220.659,421.844a.2.2,0,1,1-.2-.2A.2.2,0,0,1,220.659,421.844Z" transform="translate(-211.995 -406.152)" fill="url(#m)"/><path d="M268.924,405.947a.2.2,0,1,1-.2-.2A.2.2,0,0,1,268.924,405.947Z" transform="translate(-234.804 -398.639)" fill="url(#m)"/><circle cx="0.202" cy="0.202" r="0.202" transform="translate(39.219 17.205)" fill="url(#m)"/></g></g><path d="M197.279,394.512a74.369,74.369,0,0,1,.133-10.935c.151-1.819.355-3.629.684-5.474.1-.477.172-.92.316-1.424l.1-.372.052-.186c.021-.067.06-.159.09-.236a6,6,0,0,1,.412-.835,18.8,18.8,0,0,1,1.769-2.376,69.191,69.191,0,0,1,7.944-7.6,74.01,74.01,0,0,1,8.865-6.4c-2.273,2.883-4.709,5.56-7.156,8.206s-4.963,5.225-7.25,7.851a17.341,17.341,0,0,0-1.5,1.936,3.443,3.443,0,0,0-.209.367.632.632,0,0,0-.039.077l-.044.139-.088.278c-.123.359-.215.806-.333,1.206-.414,1.691-.777,3.453-1.159,5.206C199.1,387.457,198.326,390.994,197.279,394.512Z" transform="translate(-181.51 -295)" fill="#fff"/><path d="M217.225,294a97.685,97.685,0,0,1-8.468-6.7q-4.045-3.54-7.845-7.327l-.475-.474-.236-.238c-.088-.09-.132-.127-.28-.291a6.353,6.353,0,0,1-.958-1.5,18.474,18.474,0,0,1-.987-2.743,43.544,43.544,0,0,1-1.1-5.387,57.542,57.542,0,0,1-.58-10.83c1.147,3.447,2.066,6.9,3.03,10.309.49,1.7.963,3.4,1.527,5.007a17.607,17.607,0,0,0,.919,2.264,3.5,3.5,0,0,0,.474.756l.9.9q3.79,3.79,7.348,7.814A97.816,97.816,0,0,1,217.225,294Z" transform="translate(-181.089 -247.666)" fill="#fff"/></g></svg>